<svg xmlns="http://www.w3.org/2000/svg" viewBox="0 0 575.05 574.74"><g id="Layer_2" data-name="Layer 2"><g id="Layer_1-2" data-name="Layer 1"><path d="M337.54,91.54c0-15.48.26-15.09-.61-15.78S338.16,75,306.87,82c-1.73.39-1.24.93-1.24,16.43,0,2.93,2.05,1.59,30.67-5.35A1.62,1.62,0,0,0,337.54,91.54Zm-18.08,2.31-10.62,2.56V84.86l10.94-2.51ZM366,87.61c.22,0-1.56.14,30.38-5.92,1.85-.35,1.27-.62.61-17.54a1.6,1.6,0,0,0-1.95-1.5c-30.21,6.55-29.49,6-29.61,7.69C364.49,84.58,363.57,87.61,366,87.61Zm27.85-21.4.55,12.6L383.17,81l-.31-12.4Zm181,185.52c-41.3-77-64.27-129.37-67.85-128.7l-40.37,6.69,5.06-83C471.76,45.35,418.42.3,418.42.39c-4.61,0,18.09-5.46-121.27,24.43-1.86.4-.86-6.11-8.1,123-40.64,9.51-11.19-2.52-126.87,55.32-1.62.81-2.25-3.91,14.55,66.33.49,2.05-3.23,1.94,64.15-7.69.48-.07-3.77,2.46,62.3-38l-3.7,119.07c0,1.15-.4.58,12.89,10-5.07,16-5.24,15.58-4.44,16.51l16.81,20.17c-59.26,110.22-54.39,102.2-54.48,102.2s-.51-2.11,17,69.58c.39,1.6-4.75.65,77.54,8,2.13,0-1.7,7.81,41.59-98.65,5.22,7.45-3.92,5.62,53.83,4.52,1.62,0,.21,2.54,16.76-44.35.45-1.27,3.11,2.29-36.85-43.13,10.49-25.79,10.09-24.2,9.64-25.13-10.52-21.77-10.67-19.14-1.63-11.62,3.59,3,2.36,4,8.91-116.8l43.32,76.06c1.28,2.2,57.14-8.95,63.54-8.95a1.62,1.62,0,0,0,1.58-1.3C576,249.2,575.27,252.54,574.84,251.73ZM179.52,267.25C163.1,198.49,164.21,205.66,166,204.8c.8,4-7.29,4.42,55.71-8.32l17,62.33ZM422.6,70.58l10.55,7.58c-1.81,34.28-2.08,32.7-.93,33.4L445.56,120c-1.53,16.81-.49,12.1-4.28,21.38L410.69,123c.09-.09.28-4,2.84-41.65C422.3,86.21,420.68,87.54,422.6,70.58Zm-126,1c12.6-2,13.2-1.7,13.31-3.44l1-16.05L395.65,34.7c1.28,18.6-2.56,15.79,17.09,11.1l-5.16,75.77-26.46,5.85c.72-30.32.95-28.47.1-29.18s-.32-.39-16.57,2.79c-1.59.31-1.21.72-2.55,14.38l-26.54,4.93c.56-11.35,1.41-14.28-1.3-13.8-15.74,2.78-16.11,2.53-16.18,4.27L316.4,141.7,292.31,147Zm2.38,143.06c-2.24.56-1.13,2.18-14.33-51.93l-41.82,6.14a1.61,1.61,0,0,1-.47-3.18L287,159.07C301,216.5,301.15,214,298.94,214.62ZM295,149.73c126.54-27.95,114.1-25.53,113.38-24.32l15.11,9.07L307.11,156.64ZM391.58,319.1l1.27-13.86-85.18,10.41a1.61,1.61,0,0,1-.39-3.19l89.12-10.89-1.28,14.14,13.3-.63-.63,12.55c6.36-.91,8.51-1.74,8.78.37s-1.41,1.82-12.19,3.36l.64-12.9ZM351,164.22l.63,13.9,26.14-4V157.5l14.15-1.29c1.15-10.37.81-11.79,2.91-11.56s1.43,1.67,0,14.53L381,160.44v16.45l-32.4,4.94-.63-14.1L333.21,169V159a1.61,1.61,0,0,1,3.22,0v6.51Zm-35.2,188.45c.49-1.55,0-1.41-10.38-8.73l47-5.91-16.33,30.35-24.78-1.56Zm-3,17.47,21.63,1.35-8,15Zm-22.7,189.25c-18.58-76.21-17.19-67.93-15.63-69.56,77.92,3.64,67.7,1.82,69.08,6.44.09,0-.38-1.42,19.43,69.59Zm58.57-70.55c-1.83-5-9.34,13.8,71.27-159.28,2-.26,4.26-.09,4.3-1.93a1.6,1.6,0,0,0-2.86-1c-2.24-3,12.85-429.63,2.87.26,15,12.46,13.95,11.51,13.82,11.66-3.33,1.63-2.95,1.29-2.75,1.72L423.2,330.15ZM447,460.21l8.8-21.72-5.66-8.17c2.76-10.29,2.64-11.94,4.71-11.4s1.09,2.16-1.2,10.81l5.79,8.36-10.3,25.38c-38.68-.69-38.35,0-38.31-2.3S410.84,459.57,447,460.21Zm2.25-149c-1.05,1.95-2.15.67-13.06-5.19l-.61,13-7.78-2.88a1.6,1.6,0,1,1,1.11-3c4.89,1.8,3.53,4.1,4.33-12.37C449.13,309.31,450.33,309.27,449.25,311.22Zm.73-94c-1.38,0,.11,2.07-19.64-35.94l66.35-10.05,17.7,33.45a1.6,1.6,0,1,1-2.84,1.49L494.9,174.74l-59.64,9C450.87,213.83,453.76,217.21,450,217.21Zm52.61,90.38-44.83-78.7,60.72-9.62,42.81,78.91Zm60.58-12.66-42.1-77.62,11.34-40.24c13.81,30.26,5.28,13.67,39.32,75.69ZM247.93,451c.47-.59-.6-.17,6.67-2.14l1.93-78.68L248,369l13.64-29.75-4.73-13.5-15.59-.69L214.68,366.3h-7l-1.27-17.69c-90.29-6.75-36.57-2.17-70.35-2.17l-.63-27c-38.87-3.13-29-4-43.46,1.45,0,1-.05-2.13.63,23.64l-9.81-2.17-1.27-28.62c-33.67-3.91-24.45-4.13-42.16.09v28.61l-22,7.72c-2.1.74-1.45-5.3-1.45,53,13.06,4.19,10,3.21,14,4.48L1.29,416.61C0,468.38.14,461.64,0,467.24l40.79,12.3c41.85-14.93,31.89-13.67,46.35-9.66l9.17,16.52c-.39,1.14-23.24,68.47-23.5,69.25,17.55,16.57,6.26,10.64,43.91,19.09l17.3-43.9c5.11,11-4.39-9.45,8,17.24,12.06-15.52,9-11.21,9.56-12.08,24.45,2.5,23.92,2.44,24.77,2.54.32-.93-.44,1.19,16.4-45.21,14.08-38.79,11.27-33.1,14.72-35.4,3-2-1.08-11.38,23.51,64.61l23.16,4,11.33-15.29Zm-75.26-.85c.93,14.95.17,13,2.42,12.89,0,.33,1.13.08-9.8,1.61l-.37-14.15ZM174,414.47l7.5-.35.19,17.25-7.09.17Zm-19.12-15,8.81-.17.19,14.52-9.2.35Zm6.5,67.39c-17.21,41.6-13.13,37.24-17.21,28.53,10.56-30.75,9.36-27.65,9.84-27.69ZM154,346.44,152.42,465.1l-13.62-3.57,12.32-4.87-2.78-102.31L137,351.1C136.76,347.11,133.59,348.42,154,346.44Zm-32.31-22.58,2.09,35.24-29.24-5c-1-29,.12,10.34-1-32.05C94.63,321.61,91.29,321.5,121.72,323.86Zm-80.79-8.75c.27-.06-2-.35,27.4,3.69v30.37L40.93,342ZM39.86,344c1.25-.45-2.2-1.11,28.61,6.88,0-.1-.32.05,14.73-3.21-.82-4.78-3.22-4.25,9.49-1.42l.32,9.21c37.05,6.39,27.25,5.95,44.44,3.13l-.34-5.74,9.65,2.75,2.74,100c-18.52,7.31-16.71,6.47-16.57,6.82-4.4,1.46-3,4.24-4.58-14.7l-14.41,3.39-1.07-15-10.8,2.37-1.66-72.26L19,351.29ZM26.73,405l-9.26-3V352.64l81.36,14.87,1.23,53.1-13.5-2.46c0-3.65.08,13.42-.22-37.29-18.68-2.46-14.63-2-16.81-2,.23,39.86.1-3.9.22,35.93,0,.09.83.18-26-5.71,0-3.45.16,12.52-.44-34.05l-16.14-3.37C27,387.73,27.3,361,26.73,405Zm58.06-6.16-13.6-3.08V380.49l13.6,1.78ZM28.58,387.51l.18-13.88,13,2.72.18,13.87Zm12.84,75.13L2,452.89,2.86,418l8.22,2-.22,16.07,16.84,3.84c-.21-13.93-.7-16.05,1-15.65,17.08,4.11,9.48,4.53,33.93-2.94L64.48,456Zm.77-36.75c-14.23-3.44-14.08-1.41-.86-6.22L24,415.27c-12.82,4.34-8.65,4.12-18.54,1.71,33.32-10.41,25.16-9.5,37.11-6.66,0,.15,27.86,6.56,28,6C75.28,416.29,70.05,417.38,42.19,425.89Zm34.75,39.48c.43-.35.82,1.25-1.51-47.59,0-.45-1.65-.72,11.15,2.4,0-.58-1.45-.79,13.19,2,.5.1.23-3.79,1.48,50.2C83.31,467.05,91.26,469.36,76.94,465.37Zm22.39,18.14h28.29l14.82,12.2L139,507.78l-15.31-12.35L95.6,493.49C98.63,484.55,97.51,487.71,99.33,483.51Zm16.57,88.93c-17.24-15-8.21-10.8-41.11-17.61l3.65-10.77c33.21,4.45,23.79.69,42.61,15.33Zm5.76-14.61C102.89,543.22,112.31,547,79,542.51l16.1-47.44,28,1.93,15.47,12.46C131.79,533.54,135.5,522.72,121.66,557.83ZM142.39,545l-3.48-7.49,13.51-20.8,4.12,8.83C149.31,536.53,152.84,531.56,142.39,545Zm33.07-8.72c-14.38-12.41-10.17-10-17.42-11.38l-5.79-12.37c18.3,1,12-2,27.6,11.65Zm15.79-43.52-10.81,29.8c-15.49-13.6-9-10.62-29-11.68l-3.58-7.63c.31-.19-.44.73,7.95-18.82.1-.23-1.62-.21,21.83.68C191.52,492.92,191.25,492.69,191.25,492.78ZM206.1,367.49c-.53,98.54.27,89.64-2,90.79L193,460.42l-.56-14.28-8.25.63L184,433.82l8.68-2.54L192,361l-18.22-2.12V347.77l31.05,2.33C206.13,367.78,206.19,367.49,206.1,367.49Zm53.81-28.32-13.55,29.6-11-.8,20.76-39.67Zm-17.72-12.45,12.65.54L233.6,367.84l-17.18-1.25ZM210.5,454c-4.67,3.1-3.34,13.79-2.8-86.08,7.26,0,33.1,1.68,47.19,3.7l-1.88,76c-21.19,5.8-15.82,4.83-42.46,6.5Zm.57,1.73c23.92-1.5,16.36-.68,33.8-3.45l-10.53,13H214.15Zm42.39,69-21.23-3.64-2.49-7.68,20.6,1.86,10.87-13,2.5,8.58Z"/></g></g></svg>